<svg width="64" height="64" viewBox="0 0 64 64" xmlns="http://www.w3.org/2000/svg">
  <defs>
    <radialGradient id="xrp-grad" cx="30%" cy="20%" r="80%">
      <stop offset="0%" stop-color="#FFFFFF"/>
      <stop offset="50%" stop-color="#444A5C"/>
      <stop offset="100%" stop-color="#05060A"/>
    </radialGradient>
  </defs>
  <circle cx="32" cy="32" r="30" fill="url(#xrp-grad)"/>
  <path d="M20 20c2.2-2.2 5.2-3.4 8.3-3.4h7.4c3.1 0 6.1 1.2 8.3 3.4l2 2
           -3.5 3.5-2-2c-1.2-1.2-2.9-1.9-4.7-1.9h-7.4c-1.8 0-3.5.7-4.7 1.9l-2 2L18 22z
           M20 44l2-2c1.2-1.2 2.9-1.9 4.7-1.9h7.4c1.8 0 3.5.7 4.7 1.9l2 2 3.5-3.5-2-2
           c-2.2-2.2-5.2-3.4-8.3-3.4h-7.4c-3.1 0-6.1 1.2-8.3 3.4l-2 2z"
        fill="#ffffff" />
</svg>
